<svg width="130" height="57" viewBox="0 0 130 57" fill="none" xmlns="http://www.w3.org/2000/svg">
<g clip-path="url(#clip0_227_151)">
<path d="M113.678 2.09277C118.055 2.09277 121.808 3.66243 124.941 6.7893C128.074 9.92287 129.637 13.681 129.637 18.0782C129.637 22.482 128.074 26.2345 124.941 29.3403C124.516 29.7612 124.08 30.1533 123.632 30.5168C116.259 26.6936 108.471 24.8657 108.31 18.0839C109.667 20.8062 110.449 22.306 113.368 23.7714C113.601 23.4213 113.849 23.0005 114.097 22.6705C115.35 21.0004 115.613 21.6441 118.425 21.0252C120.787 20.5058 121.324 19.4546 121.492 16.8089C119.345 14.9676 119.964 16.2388 118.64 13.2401C117.827 11.3988 117.142 11.2477 114.984 10.7857L115.204 7.14513C110.358 8.29296 106.977 12.3811 105.278 16.9074C103.159 22.5585 103.807 26.3732 104.87 31.3691C104.009 30.7894 103.188 30.1141 102.409 29.3412C99.2952 26.2211 97.7322 22.4696 97.7322 18.0791C97.7322 13.6954 99.2952 9.93626 102.409 6.79026C105.542 3.66338 109.294 2.09373 113.677 2.09373L113.678 2.09277Z" fill="#3D4A39"/>
<path d="M117.19 9.86357L117.467 9.19592C118.636 9.68279 119.705 10.4107 120.673 11.3787L120.673 11.3797C121.651 12.3553 122.385 13.4285 122.873 14.5993C123.363 15.772 123.607 17.0394 123.607 18.3996C123.607 19.7722 123.362 21.0453 122.872 22.218C122.382 23.3879 121.649 24.4544 120.671 25.4157C119.697 26.3789 118.627 27.1001 117.461 27.5822C116.292 28.0662 115.03 28.3073 113.678 28.3073C112.306 28.3073 111.033 28.0672 109.859 27.5841C108.686 27.102 107.62 26.3789 106.658 25.4138L106.657 25.4147C105.689 24.4467 104.961 23.3764 104.474 22.2037C103.987 21.0319 103.743 19.7636 103.743 18.3996C103.743 17.0461 103.987 15.7835 104.473 14.6108C104.959 13.44 105.687 12.363 106.655 11.3816C107.611 10.4117 108.675 9.68279 109.847 9.19592L110.124 9.86357C109.041 10.3131 108.056 10.9884 107.169 11.8876C106.267 12.802 105.591 13.8025 105.14 14.8882C104.692 15.97 104.467 17.1408 104.467 18.3996C104.467 19.6698 104.692 20.8454 105.141 21.9263C105.591 23.0081 106.267 24.001 107.168 24.903V24.9039C108.062 25.8012 109.051 26.4717 110.133 26.9174C111.214 27.3622 112.396 27.5841 113.677 27.5841C114.937 27.5841 116.107 27.3622 117.186 26.9155C118.263 26.4698 119.256 25.7992 120.162 24.903L120.163 24.902C121.071 24.0096 121.751 23.0225 122.203 21.9425C122.655 20.8598 122.881 19.6794 122.881 18.4005C122.881 17.1341 122.656 15.9595 122.204 14.8767C121.751 13.793 121.071 12.7972 120.161 11.8904H120.16C119.258 10.9884 118.267 10.3122 117.189 9.86357H117.19ZM113.678 2.09277C115.914 2.09277 117.992 2.49451 119.915 3.29704C121.836 4.0986 123.596 5.29904 125.196 6.89548H125.197C126.796 8.49478 127.997 10.2577 128.798 12.1831C129.6 14.1096 130 16.1948 130 18.4398C130 20.6885 129.599 22.7738 128.798 24.6964C127.998 26.6171 126.797 28.3713 125.196 29.9582C123.602 31.5384 121.845 32.7235 119.924 33.5146C118.001 34.3056 115.92 34.7016 113.678 34.7016V34.7007C111.428 34.694 109.341 34.2951 107.418 33.504C105.496 32.713 103.741 31.5317 102.155 29.9592L102.154 29.9582C100.564 28.3646 99.3688 26.6075 98.5711 24.6878C97.7724 22.7661 97.3716 20.6838 97.3716 18.4417C97.3716 16.2024 97.7724 14.1211 98.5711 12.1946C99.3688 10.271 100.564 8.50626 102.154 6.89835L102.155 6.89739C103.755 5.30095 105.515 4.10052 107.437 3.29895C109.36 2.49643 111.44 2.09469 113.679 2.09469L113.678 2.09277ZM119.638 3.96373C117.806 3.19947 115.82 2.81591 113.678 2.81591C111.534 2.81591 109.546 3.19851 107.714 3.96373C105.88 4.72895 104.197 5.87678 102.665 7.40626C101.143 8.94531 99.9992 10.6326 99.2378 12.4701C98.4764 14.3057 98.0957 16.2952 98.0957 18.4398C98.0957 20.5881 98.4774 22.5777 99.2378 24.4085C99.9992 26.2412 101.142 27.9208 102.665 29.4465C104.184 30.952 105.86 32.0817 107.692 32.8354C109.528 33.5911 111.524 33.9718 113.678 33.9775V33.9756C115.828 33.9756 117.818 33.5987 119.649 32.846C121.482 32.0922 123.16 30.9587 124.686 29.4455C126.218 27.9266 127.366 26.2507 128.131 24.418C128.894 22.5863 129.275 20.5938 129.275 18.4388C129.275 16.2876 128.894 14.2942 128.131 12.4586C127.367 10.623 126.218 8.93861 124.685 7.4053L124.686 7.40435C123.154 5.87487 121.471 4.72704 119.638 3.96182V3.96373Z" fill="#3D4A39"/>
<path d="M110.092 9.78551L110.125 9.86395C110.043 9.89838 109.961 9.93377 109.88 9.97012C107.81 11.8114 106.262 14.286 105.278 16.9068C104.963 17.7486 104.708 18.5492 104.508 19.3192C104.591 20.2422 104.803 21.1117 105.141 21.9267C105.591 23.0085 106.267 24.0014 107.168 24.9034V24.9043C108.062 25.8015 109.051 26.4721 110.133 26.9178C111.214 27.3626 112.396 27.5845 113.677 27.5845C114.687 27.5845 115.637 27.442 116.531 27.156C111.972 24.9636 108.418 22.6431 108.309 18.0834C109.666 20.8056 110.448 22.3054 113.368 23.7708C113.6 23.4207 113.848 22.9999 114.096 22.6708C115.349 21.0007 115.613 21.6435 118.424 21.0256C120.786 20.5062 121.323 19.455 121.491 16.8093C119.344 14.968 119.963 16.2392 118.639 13.2405C117.826 11.3992 117.142 11.248 114.983 10.786L115.203 7.14551C113.259 7.60655 111.55 8.54108 110.091 9.78647L110.092 9.78551Z" fill="#DDD5C1"/>
<path d="M117.447 27.5892C116.281 28.0694 115.024 28.3086 113.678 28.3086C112.306 28.3086 111.033 28.0675 109.859 27.5854C108.686 27.1033 107.62 26.3802 106.658 25.4151L106.657 25.416C105.689 24.448 104.961 23.3777 104.474 22.205C104.334 21.8692 104.215 21.5258 104.115 21.1748C103.547 24.6939 104.087 27.6849 104.851 31.2814C105.752 31.9099 106.699 32.4293 107.692 32.8377C109.527 33.5933 111.523 33.974 113.677 33.9798V33.9788C115.827 33.9788 117.817 33.602 119.648 32.8492C121.038 32.2772 122.34 31.4871 123.554 30.478C121.489 29.4124 119.395 28.4999 117.446 27.5902L117.447 27.5892Z" fill="#AE7B3C"/>
<path d="M80.29 2.15206C84.6537 2.15206 88.4128 3.70163 91.5722 6.80841L87.0689 11.3117C85.1597 9.42929 82.9109 8.48424 80.3302 8.48424C77.6893 8.48424 75.4405 9.42929 73.5848 11.3117C71.7158 13.1808 70.7774 15.4363 70.7774 18.0772C70.7774 20.7115 71.7158 22.967 73.5848 24.836C75.4271 26.7051 77.6759 27.6434 80.3302 27.6434C82.2796 27.6434 84.0492 27.0982 85.6456 26.0068C87.1158 25.0091 88.2139 23.7188 88.9456 22.1482H79.9782V16.1278H96.1167C96.5289 21.4891 95.0061 25.8939 91.533 29.3393C88.3994 32.4461 84.648 33.9957 80.2709 33.9957C75.8537 33.9957 72.1022 32.4461 69.0222 29.3393C65.9087 26.2459 64.3458 22.4944 64.3458 18.0772C64.3458 13.6935 65.9087 9.93433 69.0222 6.78833C72.1156 3.66145 75.8671 2.0918 80.2709 2.0918L80.291 2.15206H80.29Z" fill="#3D4A39"/>
<path d="M80.5502 1.79262C82.6794 1.82227 84.6699 2.21828 86.5199 2.98254C88.4444 3.77645 90.212 4.96637 91.8257 6.55228L92.0859 6.80767L87.0718 11.8218L86.8164 11.5702C85.8952 10.6625 84.8928 9.98046 83.811 9.52611C82.733 9.07368 81.5727 8.84698 80.3302 8.84698C79.058 8.84698 77.8825 9.07368 76.8035 9.52611C75.7226 9.9795 74.7355 10.6596 73.8421 11.5654L73.8411 11.5683C72.9391 12.4703 72.2629 13.4632 71.8133 14.5459C71.3647 15.6278 71.1399 16.8053 71.1399 18.0774C71.1399 19.3477 71.3647 20.5233 71.8143 21.6041C72.2638 22.686 72.9401 23.6788 73.8411 24.5799L73.8421 24.5827C74.7288 25.4828 75.7131 26.1581 76.793 26.6077C77.871 27.0563 79.0504 27.2811 80.3302 27.2811C81.2705 27.2811 82.1648 27.1501 83.0142 26.8889C83.8645 26.6268 84.6738 26.2337 85.4419 25.7086H85.4428C86.1478 25.2303 86.7647 24.6803 87.2937 24.0624C87.7002 23.587 88.0551 23.0695 88.3583 22.5109H79.6157V15.7665H96.4514L96.4773 16.1013C96.6867 18.8293 96.4026 21.3191 95.6221 23.5698C94.8397 25.8253 93.5627 27.834 91.7874 29.5959C90.1872 31.1828 88.4262 32.3727 86.5055 33.1666C84.5829 33.9615 82.5053 34.3584 80.2709 34.3584C78.0154 34.3584 75.9264 33.9615 74.0057 33.1656C72.0859 32.3708 70.3393 31.1808 68.7668 29.5949C67.1761 28.0138 65.9814 26.2643 65.1827 24.3436C64.384 22.422 63.9832 20.3329 63.9832 18.0774C63.9832 15.8382 64.384 13.7568 65.1827 11.8304C65.9804 9.90681 67.1751 8.14202 68.7658 6.53411C70.347 4.93576 72.0984 3.73436 74.0191 2.9328C75.9388 2.13123 78.0231 1.72949 80.2709 1.72949H80.5301L80.5502 1.79167V1.79262ZM86.2463 3.64923C84.4117 2.89262 82.4269 2.51384 80.291 2.51384H80.0318L80.0126 2.45549C77.958 2.48515 76.0526 2.8668 74.2964 3.60045C72.4647 4.36567 70.7917 5.5135 69.2776 7.04298C67.7548 8.58202 66.6117 10.2693 65.8494 12.1078C65.088 13.9433 64.7073 15.9329 64.7073 18.0774C64.7073 20.2392 65.089 22.2354 65.8494 24.0662C66.6108 25.8989 67.7538 27.5709 69.2757 29.0841L69.2766 29.0851C70.7822 30.6041 72.4504 31.7414 74.2783 32.498C76.1081 33.2555 78.1063 33.6343 80.2699 33.6343C82.4125 33.6343 84.3992 33.2565 86.231 32.4989C88.0627 31.7414 89.7453 30.6031 91.2786 29.0832C92.9754 27.3987 94.196 25.4828 94.9411 23.3345C95.6556 21.2732 95.9349 18.9909 95.779 16.4896H80.3398V21.7859H89.5128L89.2727 22.3005C88.893 23.1154 88.4166 23.8596 87.8418 24.5311C87.2736 25.1959 86.6088 25.787 85.8484 26.3045V26.3054C85.021 26.8708 84.1467 27.2954 83.2256 27.5795C82.3035 27.8636 81.3384 28.0052 80.3302 28.0052C78.9566 28.0052 77.6854 27.7613 76.5165 27.2754C75.3477 26.7894 74.2859 26.0606 73.3294 25.0916L73.3284 25.0926C72.3604 24.1246 71.6325 23.0542 71.1457 21.8815C70.6588 20.7098 70.4149 19.4414 70.4149 18.0774C70.4149 16.7106 70.6588 15.4413 71.1457 14.2686C71.6325 13.0949 72.3604 12.0246 73.3284 11.0565L73.3294 11.0575C74.2917 10.0819 75.3563 9.3482 76.5232 8.85942C77.6921 8.36872 78.9614 8.12385 80.3302 8.12385C81.6684 8.12385 82.9224 8.36968 84.0903 8.85942C85.1539 9.30611 86.1459 9.95559 87.0622 10.8079L91.0566 6.81341C89.5817 5.4188 87.9786 4.36471 86.2453 3.64923H86.2463Z" fill="#3D4A39"/>
<path d="M55.2846 19.7146V2.27143H61.6168V34.4097L42.6709 16.361V33.8042H36.3579V1.68604L55.2846 19.7146Z" fill="#3D4A39"/>
<path d="M54.6767 18.0276V1.54765H62.4571V36.0963L43.5112 18.0486V34.5286H35.75V0L54.6758 18.0276H54.6767ZM56.1249 2.99583V21.4012L37.1991 3.37366V33.0804H42.064V14.675L61.0099 32.7227V2.99583H56.1249Z" fill="#3D4A39"/>
<path d="M26.147 2.34521H32.46V33.7641H26.147V2.34521Z" fill="#3D4A39"/>
<path d="M26.147 1.98291H32.8216V34.1259H25.7845V1.98291H26.146H26.147ZM32.0985 2.707H26.5095V33.4018H32.0985V2.707Z" fill="#3D4A39"/>
<path d="M11.2195 17.2928C12.3635 17.2928 13.3411 16.8605 14.1598 15.9891C14.9652 15.1177 15.3708 14.0798 15.3708 12.8689C15.3708 11.7249 14.9518 10.7205 14.1197 9.84914C13.2617 9.01792 11.9646 8.60566 10.2218 8.60566H6.67601V17.2737H9.11036V17.2938H11.2195V17.2928ZM0.362961 2.34521H10.614C13.9398 2.34521 16.6812 3.40983 18.8363 5.54479C19.8942 6.596 20.6393 7.58696 21.0784 8.52531C21.6102 9.66931 21.8771 11.0534 21.8771 12.6766V13.4945C21.8771 15.6103 21.218 17.6056 19.8952 19.4813C18.9434 20.8052 17.6866 21.7693 16.1303 22.3815L23.441 33.7641H15.7247L6.69706 19.8678V33.7641H0.363917V2.34521H0.362961Z" fill="#3D4A39"/>
<path d="M11.2195 16.9315C11.7417 16.9315 12.2238 16.8339 12.6657 16.6378C13.1096 16.4408 13.519 16.1433 13.8939 15.7454C14.266 15.3417 14.5453 14.9027 14.7299 14.4273C14.9145 13.9509 15.0083 13.4325 15.0083 12.8701C15.0083 12.3449 14.9126 11.8542 14.7232 11.3961C14.5319 10.936 14.245 10.5046 13.8624 10.1028C13.475 9.72884 12.9852 9.44762 12.3931 9.25918C11.7819 9.06405 11.0588 8.96744 10.2209 8.96744H7.03757V16.9114H9.47192V16.9315H11.2185H11.2195ZM12.9575 17.2988C12.4209 17.5369 11.8422 17.6546 11.2195 17.6546H8.74879V17.6345H6.31444V8.2424H10.2218C11.1277 8.2424 11.9235 8.35144 12.6112 8.57144C13.3152 8.79623 13.9016 9.13483 14.3712 9.59014L14.3808 9.59971C14.8275 10.0674 15.1642 10.5734 15.3899 11.1177C15.6176 11.6658 15.7314 12.2493 15.7314 12.8691C15.7314 13.5176 15.6214 14.1231 15.4024 14.6865C15.1833 15.2499 14.8571 15.7655 14.4248 16.2342L14.4219 16.237C13.9791 16.7086 13.4912 17.0625 12.9565 17.2988H12.9575ZM0.362949 1.98291H10.614C12.3204 1.98291 13.8805 2.25743 15.2943 2.80743C16.7118 3.35839 17.9773 4.18578 19.0907 5.28865C19.6302 5.82526 20.0922 6.34848 20.4777 6.86118C20.866 7.3777 21.175 7.88083 21.4045 8.37249L21.4055 8.37344C21.6838 8.97223 21.8924 9.63223 22.0311 10.3525C22.1688 11.0689 22.2377 11.8437 22.2377 12.6759V13.4937C22.2377 14.5899 22.0665 15.6555 21.725 16.6904C21.3835 17.7215 20.8718 18.7211 20.1898 19.6891L20.1869 19.692C19.6914 20.3816 19.1165 20.9776 18.4623 21.4816C17.9171 21.9016 17.3173 22.2574 16.665 22.5482L24.101 34.1259H15.5277L7.05765 21.0866V34.1259H0.000427246V1.98291H0.361993H0.362949ZM10.614 2.707H0.724515V33.4018H6.33357V18.6475L15.9179 33.4018H22.7781L15.587 22.2067L15.9973 22.045C16.7453 21.7504 17.4206 21.3726 18.0213 20.9106C18.6191 20.4495 19.1462 19.9043 19.5996 19.274H19.5986C20.2395 18.3662 20.7187 17.4298 21.0382 16.4647C21.3558 15.5043 21.5145 14.5134 21.5145 13.4947V12.6768C21.5145 11.8858 21.4505 11.1569 21.3223 10.4893C21.1951 9.8264 21.0038 9.22188 20.7503 8.67666H20.7512C20.5427 8.23092 20.2596 7.76988 19.9018 7.29448C19.5403 6.81335 19.1003 6.31596 18.5828 5.80135C17.5411 4.76926 16.3579 3.99543 15.0351 3.48083C13.7084 2.96526 12.2353 2.707 10.615 2.707H10.614Z" fill="#3D4A39"/>
<path d="M6.75636 54.7678C7.42114 54.7678 8.01419 54.6559 8.53645 54.4321C9.05871 54.2083 9.5035 53.8945 9.86506 53.4918C10.2276 53.0891 10.5031 52.607 10.6934 52.0475C10.8838 51.4879 10.9775 50.8719 10.9775 50.1995V40.4458H13.1383V50.1995C13.1383 51.1254 12.9929 51.9834 12.6983 52.7754C12.4037 53.5664 11.9818 54.2494 11.4328 54.8281C10.8838 55.4068 10.2123 55.8621 9.42124 56.1902C8.63019 56.5183 7.74158 56.6828 6.75636 56.6828C5.77114 56.6828 4.88253 56.5183 4.09149 56.1902C3.30044 55.8621 2.62801 55.4068 2.07609 54.8281C1.52322 54.2494 1.10235 53.5664 0.806788 52.7754C0.512178 51.9843 0.362961 51.1254 0.362961 50.1995V40.4458H2.52375V50.188C2.52375 50.8595 2.62036 51.4755 2.8107 52.036C3.00105 52.5956 3.27749 53.0776 3.63905 53.4803C4.00157 53.883 4.4454 54.1968 4.97149 54.4244C5.49758 54.6521 6.09158 54.7678 6.75541 54.7678H6.75636Z" fill="#AE7B3C"/>
<path d="M24.9313 47.4772H25.7491C26.0332 47.4772 26.2608 47.4399 26.432 47.3691C26.6033 47.2983 26.7601 47.1787 26.9026 47.0066L32.2439 40.9594C32.3931 40.7652 32.55 40.6313 32.7145 40.5567C32.879 40.4821 33.0799 40.4448 33.319 40.4448H35.1555L29.0414 47.3538C28.8922 47.5326 28.7507 47.678 28.612 47.7938C28.4742 47.9095 28.325 48.0061 28.1681 48.0807C28.37 48.1477 28.5527 48.2452 28.7172 48.3753C28.8817 48.5064 29.0414 48.6776 29.1983 48.8871L35.5812 56.4905H33.6997C33.5581 56.4905 33.4386 56.479 33.3372 56.4608C33.2367 56.4417 33.1468 56.412 33.0722 56.3709C32.9976 56.3298 32.9345 56.281 32.878 56.2255C32.8216 56.1691 32.7661 56.106 32.7135 56.0313L27.182 49.6599C27.0327 49.4734 26.872 49.3386 26.7008 49.2601C26.5296 49.1817 26.2675 49.1444 25.9174 49.1444H24.9322V56.4905H22.7714V40.4438H24.9322V47.4762L24.9313 47.4772Z" fill="#AE7B3C"/>
<path d="M47.7864 48.2166C48.4139 48.2166 48.9696 48.1382 49.4508 47.9851C49.9319 47.8321 50.3355 47.6159 50.6598 47.3356C50.9841 47.0554 51.227 46.7235 51.3916 46.3351C51.5561 45.9468 51.6383 45.5173 51.6383 45.0476C51.6383 44.0921 51.3246 43.3718 50.6981 42.8868C50.0706 42.4019 49.1303 42.1589 47.8763 42.1589H45.5022V48.2176H47.7864V48.2166ZM55.1995 56.4924H53.273C52.877 56.4924 52.5862 56.3394 52.3997 56.0333L48.2341 50.2999C48.1068 50.121 47.9729 49.99 47.8275 49.9116C47.6822 49.8331 47.4545 49.7958 47.1484 49.7958H45.5022V56.4924H43.3414V40.4458H47.8763C48.8912 40.4458 49.7693 40.5462 50.5077 40.7519C51.2471 40.9575 51.8593 41.256 52.3404 41.6443C52.8216 42.0327 53.1764 42.4995 53.4079 43.0475C53.6394 43.5966 53.7551 44.2126 53.7551 44.8917C53.7551 45.4589 53.6652 45.9889 53.4863 46.4815C53.3075 46.9741 53.0492 47.415 52.7096 47.8062C52.3701 48.1984 51.9559 48.5342 51.4671 48.8106C50.9783 49.087 50.4216 49.2956 49.8018 49.4381C50.0782 49.5949 50.3174 49.8226 50.5182 50.121L55.1995 56.4924Z" fill="#AE7B3C"/>
<path d="M70.8759 50.5343L68.3565 44.006C68.2818 43.8118 68.2034 43.5842 68.1211 43.3268C68.0389 43.0695 67.9605 42.7969 67.8858 42.5052C67.729 43.1097 67.5683 43.6138 67.4047 44.0165L64.8852 50.5333H70.8759V50.5343ZM75.4003 56.4915H73.7206C73.5265 56.4915 73.3696 56.4427 73.25 56.3461C73.1305 56.2495 73.0405 56.1261 72.9812 55.9769L71.4805 52.102H64.2798L62.779 55.9769C62.734 56.1108 62.6479 56.2303 62.5217 56.3356C62.3944 56.4398 62.2376 56.4924 62.0511 56.4924H60.3714L66.7878 40.4458H68.983L75.3993 56.4924L75.4003 56.4915Z" fill="#AE7B3C"/>
<path d="M84.6718 56.4924H82.4996V40.4448H84.6718V56.4924Z" fill="#AE7B3C"/>
<path d="M107.505 40.4448V56.4915H106.418C106.246 56.4915 106.105 56.4618 105.989 56.4015C105.873 56.3422 105.757 56.2408 105.646 56.0993L96.3625 44.005C96.3778 44.1915 96.3883 44.3742 96.396 44.5541C96.4036 44.7329 96.4074 44.9013 96.4074 45.0581V56.4915H94.504V40.4448H95.6241C95.7207 40.4448 95.8029 40.4487 95.8708 40.4601C95.9378 40.4716 95.9981 40.4898 96.0497 40.5166C96.1023 40.5424 96.154 40.5797 96.2066 40.6285C96.2592 40.6773 96.3147 40.7404 96.3749 40.815L105.658 52.8978C105.643 52.7036 105.632 52.5133 105.621 52.3306C105.609 52.1479 105.602 51.9757 105.602 51.8121V40.4458H107.505V40.4448Z" fill="#AE7B3C"/>
<path d="M125.109 50.5343L122.589 44.006C122.515 43.8118 122.436 43.5842 122.354 43.3268C122.272 43.0695 122.193 42.7969 122.119 42.5052C121.962 43.1097 121.801 43.6138 121.638 44.0165L119.118 50.5333H125.109V50.5343ZM129.633 56.4915H127.954C127.759 56.4915 127.603 56.4427 127.483 56.3461C127.363 56.2495 127.273 56.1261 127.214 55.9769L125.713 52.102H118.513L117.012 55.9769C116.967 56.1108 116.881 56.2303 116.755 56.3356C116.627 56.4398 116.471 56.4924 116.284 56.4924H114.604L121.021 40.4458H123.216L129.632 56.4924L129.633 56.4915Z" fill="#AE7B3C"/>
</g>
<defs>
<clipPath id="clip0_227_151">
<rect width="130" height="56.6826" fill="white"/>
</clipPath>
</defs>
</svg>
